<svg width="70" height="70" viewBox="0 0 70 70" fill="none" xmlns="http://www.w3.org/2000/svg">
<circle cx="35" cy="35" r="35" fill="#FA997F"/>
<path d="M15.4228 48V22.5455H25.4654C27.3878 22.5455 29.0284 22.8893 30.3873 23.5771C31.7545 24.2565 32.7944 25.2218 33.507 26.473C34.2279 27.7159 34.5883 29.1784 34.5883 30.8604C34.5883 32.5508 34.2237 34.005 33.4945 35.223C32.7654 36.4328 31.7089 37.3608 30.3252 38.0071C28.9497 38.6534 27.2842 38.9766 25.3287 38.9766H18.6046V34.6513H24.4587C25.4861 34.6513 26.3396 34.5104 27.019 34.2287C27.6985 33.947 28.2039 33.5244 28.5354 32.9609C28.8751 32.3975 29.045 31.6973 29.045 30.8604C29.045 30.0153 28.8751 29.3027 28.5354 28.7227C28.2039 28.1426 27.6944 27.7035 27.0066 27.4052C26.3272 27.0986 25.4696 26.9453 24.4338 26.9453H20.8046V48H15.4228ZM29.1693 36.4162L35.4956 48H29.5546L23.3649 36.4162H29.1693ZM46.6848 48.3729C44.721 48.3729 43.0307 47.9751 41.6138 47.1797C40.2052 46.3759 39.1197 45.2408 38.3574 43.7741C37.5951 42.2992 37.2139 40.555 37.2139 38.5415C37.2139 36.5778 37.5951 34.8543 38.3574 33.3711C39.1197 31.8879 40.1927 30.732 41.5765 29.9034C42.9685 29.0748 44.6009 28.6605 46.4735 28.6605C47.733 28.6605 48.9054 28.8635 49.9909 29.2695C51.0847 29.6673 52.0375 30.268 52.8496 31.0717C53.6699 31.8755 54.3079 32.8864 54.7636 34.1044C55.2194 35.3142 55.4472 36.7311 55.4472 38.3551V39.8093H39.3268V36.5281H50.4632C50.4632 35.7657 50.2975 35.0904 49.966 34.5021C49.6346 33.9138 49.1747 33.454 48.5864 33.1225C48.0064 32.7828 47.3311 32.6129 46.5605 32.6129C45.7568 32.6129 45.0442 32.7994 44.4227 33.1722C43.8096 33.5368 43.329 34.0298 42.981 34.6513C42.6329 35.2644 42.4548 35.948 42.4465 36.7021V39.8217C42.4465 40.7663 42.6205 41.5825 42.9685 42.2702C43.3248 42.958 43.8261 43.4883 44.4724 43.8612C45.1187 44.234 45.8852 44.4205 46.7718 44.4205C47.3601 44.4205 47.8987 44.3376 48.3876 44.1719C48.8764 44.0062 49.2949 43.7576 49.6429 43.4261C49.9909 43.0947 50.2561 42.6887 50.4383 42.2081L55.3354 42.5312C55.0868 43.7079 54.5772 44.7353 53.8066 45.6136C53.0443 46.4837 52.0583 47.1631 50.8485 47.652C49.647 48.1326 48.2591 48.3729 46.6848 48.3729Z" fill="white"/>
</svg>
