<svg width="229" height="70" viewBox="0 0 229 70" fill="none" xmlns="http://www.w3.org/2000/svg">
<circle cx="35" cy="35" r="35" fill="#FA997F"/>
<path d="M15.4228 48V22.5455H25.4654C27.3878 22.5455 29.0284 22.8893 30.3873 23.5771C31.7545 24.2565 32.7944 25.2218 33.507 26.473C34.2279 27.7159 34.5883 29.1784 34.5883 30.8604C34.5883 32.5508 34.2237 34.005 33.4945 35.223C32.7654 36.4328 31.7089 37.3608 30.3252 38.0071C28.9497 38.6534 27.2842 38.9766 25.3287 38.9766H18.6046V34.6513H24.4587C25.4861 34.6513 26.3396 34.5104 27.019 34.2287C27.6985 33.947 28.2039 33.5244 28.5354 32.9609C28.8751 32.3975 29.045 31.6973 29.045 30.8604C29.045 30.0153 28.8751 29.3027 28.5354 28.7227C28.2039 28.1426 27.6944 27.7035 27.0066 27.4052C26.3272 27.0986 25.4696 26.9453 24.4338 26.9453H20.8046V48H15.4228ZM29.1693 36.4162L35.4956 48H29.5546L23.3649 36.4162H29.1693ZM46.6848 48.3729C44.721 48.3729 43.0307 47.9751 41.6138 47.1797C40.2052 46.3759 39.1197 45.2408 38.3574 43.7741C37.5951 42.2992 37.2139 40.555 37.2139 38.5415C37.2139 36.5778 37.5951 34.8543 38.3574 33.3711C39.1197 31.8879 40.1927 30.732 41.5765 29.9034C42.9685 29.0748 44.6009 28.6605 46.4735 28.6605C47.733 28.6605 48.9054 28.8635 49.9909 29.2695C51.0847 29.6673 52.0375 30.268 52.8496 31.0717C53.6699 31.8755 54.3079 32.8864 54.7636 34.1044C55.2194 35.3142 55.4472 36.7311 55.4472 38.3551V39.8093H39.3268V36.5281H50.4632C50.4632 35.7657 50.2975 35.0904 49.966 34.5021C49.6346 33.9138 49.1747 33.454 48.5864 33.1225C48.0064 32.7828 47.3311 32.6129 46.5605 32.6129C45.7568 32.6129 45.0442 32.7994 44.4227 33.1722C43.8096 33.5368 43.329 34.0298 42.981 34.6513C42.6329 35.2644 42.4548 35.948 42.4465 36.7021V39.8217C42.4465 40.7663 42.6205 41.5825 42.9685 42.2702C43.3248 42.958 43.8261 43.4883 44.4724 43.8612C45.1187 44.234 45.8852 44.4205 46.7718 44.4205C47.3601 44.4205 47.8987 44.3376 48.3876 44.1719C48.8764 44.0062 49.2949 43.7576 49.6429 43.4261C49.9909 43.0947 50.2561 42.6887 50.4383 42.2081L55.3354 42.5312C55.0868 43.7079 54.5772 44.7353 53.8066 45.6136C53.0443 46.4837 52.0583 47.1631 50.8485 47.652C49.647 48.1326 48.2591 48.3729 46.6848 48.3729Z" fill="white"/>
<path d="M81.5994 50.5455V54.1818H70.8267V50.5455H81.5994ZM73.2926 68V49.2841C73.2926 48.0189 73.5388 46.9697 74.0312 46.1364C74.5312 45.303 75.2131 44.678 76.0767 44.2614C76.9403 43.8447 77.9214 43.6364 79.0199 43.6364C79.7623 43.6364 80.4403 43.6932 81.054 43.8068C81.6752 43.9205 82.1373 44.0227 82.4403 44.1136L81.5767 47.75C81.3873 47.6894 81.1525 47.6326 80.8722 47.5795C80.5994 47.5265 80.3191 47.5 80.0312 47.5C79.3191 47.5 78.8229 47.6667 78.5426 48C78.2623 48.3258 78.1222 48.7841 78.1222 49.375V68H73.2926ZM89.3977 44.7273V68H84.5568V44.7273H89.3977ZM101.23 68.3409C99.4347 68.3409 97.8892 67.9773 96.5938 67.25C95.3059 66.5152 94.3134 65.4773 93.6165 64.1364C92.9195 62.7879 92.571 61.1932 92.571 59.3523C92.571 57.5568 92.9195 55.9811 93.6165 54.625C94.3134 53.2689 95.2945 52.2121 96.5597 51.4545C97.8324 50.697 99.3248 50.3182 101.037 50.3182C102.188 50.3182 103.26 50.5038 104.253 50.875C105.253 51.2386 106.124 51.7879 106.866 52.5227C107.616 53.2576 108.2 54.1818 108.616 55.2955C109.033 56.4015 109.241 57.697 109.241 59.1818V60.5114H94.5028V57.5114H104.685C104.685 56.8144 104.533 56.197 104.23 55.6591C103.927 55.1212 103.507 54.7008 102.969 54.3977C102.438 54.0871 101.821 53.9318 101.116 53.9318C100.382 53.9318 99.7301 54.1023 99.1619 54.4432C98.6013 54.7765 98.1619 55.2273 97.8438 55.7955C97.5256 56.3561 97.3627 56.9811 97.3551 57.6705V60.5227C97.3551 61.3864 97.5142 62.1326 97.8324 62.7614C98.1581 63.3902 98.6165 63.875 99.2074 64.2159C99.7983 64.5568 100.499 64.7273 101.31 64.7273C101.848 64.7273 102.34 64.6515 102.787 64.5C103.234 64.3485 103.616 64.1212 103.935 63.8182C104.253 63.5152 104.495 63.1439 104.662 62.7045L109.139 63C108.912 64.0758 108.446 65.0152 107.741 65.8182C107.045 66.6136 106.143 67.2348 105.037 67.6818C103.938 68.1212 102.67 68.3409 101.23 68.3409ZM120.287 68.3409C118.499 68.3409 116.961 67.9621 115.673 67.2045C114.393 66.4394 113.408 65.3788 112.719 64.0227C112.037 62.6667 111.696 61.1061 111.696 59.3409C111.696 57.553 112.041 55.9848 112.73 54.6364C113.427 53.2803 114.416 52.2235 115.696 51.4659C116.976 50.7008 118.499 50.3182 120.264 50.3182C121.787 50.3182 123.12 50.5947 124.264 51.1477C125.408 51.7008 126.313 52.4773 126.98 53.4773C127.647 54.4773 128.014 55.6515 128.082 57H123.514C123.385 56.1288 123.045 55.428 122.491 54.8977C121.946 54.3598 121.23 54.0909 120.344 54.0909C119.594 54.0909 118.938 54.2955 118.378 54.7045C117.825 55.1061 117.393 55.6932 117.082 56.4659C116.772 57.2386 116.616 58.1742 116.616 59.2727C116.616 60.3864 116.768 61.3333 117.071 62.1136C117.382 62.8939 117.817 63.4886 118.378 63.8977C118.938 64.3068 119.594 64.5114 120.344 64.5114C120.897 64.5114 121.393 64.3977 121.832 64.1705C122.279 63.9432 122.647 63.6136 122.935 63.1818C123.23 62.7424 123.423 62.2159 123.514 61.6023H128.082C128.007 62.9356 127.643 64.1098 126.991 65.125C126.348 66.1326 125.457 66.9205 124.321 67.4886C123.185 68.0568 121.84 68.3409 120.287 68.3409ZM140.466 50.5455V54.1818H129.955V50.5455H140.466ZM132.341 46.3636H137.182V62.6364C137.182 63.0833 137.25 63.4318 137.386 63.6818C137.523 63.9242 137.712 64.0947 137.955 64.1932C138.205 64.2917 138.492 64.3409 138.818 64.3409C139.045 64.3409 139.273 64.322 139.5 64.2841C139.727 64.2386 139.902 64.2045 140.023 64.1818L140.784 67.7841C140.542 67.8598 140.201 67.947 139.761 68.0455C139.322 68.1515 138.788 68.2159 138.159 68.2386C136.992 68.2841 135.97 68.1288 135.091 67.7727C134.22 67.4167 133.542 66.8636 133.057 66.1136C132.572 65.3636 132.333 64.4167 132.341 63.2727V46.3636ZM143.619 68V50.5455H148.46V68H143.619ZM146.051 48.2955C145.331 48.2955 144.714 48.0568 144.199 47.5795C143.691 47.0947 143.438 46.5152 143.438 45.8409C143.438 45.1742 143.691 44.6023 144.199 44.125C144.714 43.6402 145.331 43.3977 146.051 43.3977C146.771 43.3977 147.384 43.6402 147.892 44.125C148.407 44.6023 148.665 45.1742 148.665 45.8409C148.665 46.5152 148.407 47.0947 147.892 47.5795C147.384 48.0568 146.771 48.2955 146.051 48.2955ZM168.611 50.5455L162.509 68H157.054L150.952 50.5455H156.065L159.69 63.0341H159.872L163.486 50.5455H168.611ZM178.48 68.3409C176.685 68.3409 175.139 67.9773 173.844 67.25C172.556 66.5152 171.563 65.4773 170.866 64.1364C170.17 62.7879 169.821 61.1932 169.821 59.3523C169.821 57.5568 170.17 55.9811 170.866 54.625C171.563 53.2689 172.545 52.2121 173.81 51.4545C175.082 50.697 176.575 50.3182 178.287 50.3182C179.438 50.3182 180.51 50.5038 181.503 50.875C182.503 51.2386 183.374 51.7879 184.116 52.5227C184.866 53.2576 185.45 54.1818 185.866 55.2955C186.283 56.4015 186.491 57.697 186.491 59.1818V60.5114H171.753V57.5114H181.935C181.935 56.8144 181.783 56.197 181.48 55.6591C181.177 55.1212 180.757 54.7008 180.219 54.3977C179.688 54.0871 179.071 53.9318 178.366 53.9318C177.632 53.9318 176.98 54.1023 176.412 54.4432C175.851 54.7765 175.412 55.2273 175.094 55.7955C174.776 56.3561 174.613 56.9811 174.605 57.6705V60.5227C174.605 61.3864 174.764 62.1326 175.082 62.7614C175.408 63.3902 175.866 63.875 176.457 64.2159C177.048 64.5568 177.749 64.7273 178.56 64.7273C179.098 64.7273 179.59 64.6515 180.037 64.5C180.484 64.3485 180.866 64.1212 181.185 63.8182C181.503 63.5152 181.745 63.1439 181.912 62.7045L186.389 63C186.162 64.0758 185.696 65.0152 184.991 65.8182C184.295 66.6136 183.393 67.2348 182.287 67.6818C181.188 68.1212 179.92 68.3409 178.48 68.3409Z" fill="#FA997F"/>
</svg>
