<svg width="123" height="70" viewBox="0 0 123 70" fill="none" xmlns="http://www.w3.org/2000/svg">
<circle cx="35" cy="35" r="35" fill="#FA997F"/>
<path d="M23.7393 50V20.9091H29.8899V33.7358H30.2734L40.7422 20.9091H48.1143L37.3189 33.9347L48.2422 50H40.8842L32.9155 38.0398L29.8899 41.733V50H23.7393Z" fill="white"/>
<path d="M76.9759 36.7273V60H72.1349V36.7273H76.9759ZM88.7401 60.3409C86.9749 60.3409 85.4484 59.9659 84.1605 59.2159C82.8802 58.4583 81.8916 57.4053 81.1946 56.0568C80.4976 54.7008 80.1491 53.1288 80.1491 51.3409C80.1491 49.5379 80.4976 47.9621 81.1946 46.6136C81.8916 45.2576 82.8802 44.2045 84.1605 43.4545C85.4484 42.697 86.9749 42.3182 88.7401 42.3182C90.5052 42.3182 92.0279 42.697 93.3082 43.4545C94.5961 44.2045 95.5885 45.2576 96.2855 46.6136C96.9825 47.9621 97.331 49.5379 97.331 51.3409C97.331 53.1288 96.9825 54.7008 96.2855 56.0568C95.5885 57.4053 94.5961 58.4583 93.3082 59.2159C92.0279 59.9659 90.5052 60.3409 88.7401 60.3409ZM88.7628 56.5909C89.5658 56.5909 90.2363 56.3636 90.7741 55.9091C91.312 55.447 91.7173 54.8182 91.9901 54.0227C92.2704 53.2273 92.4105 52.322 92.4105 51.3068C92.4105 50.2917 92.2704 49.3864 91.9901 48.5909C91.7173 47.7955 91.312 47.1667 90.7741 46.7045C90.2363 46.2424 89.5658 46.0114 88.7628 46.0114C87.9522 46.0114 87.2704 46.2424 86.7173 46.7045C86.1719 47.1667 85.759 47.7955 85.4787 48.5909C85.206 49.3864 85.0696 50.2917 85.0696 51.3068C85.0696 52.322 85.206 53.2273 85.4787 54.0227C85.759 54.8182 86.1719 55.447 86.7173 55.9091C87.2704 56.3636 87.9522 56.5909 88.7628 56.5909ZM108.342 66.9091C106.774 66.9091 105.429 66.6932 104.308 66.2614C103.195 65.8371 102.308 65.2576 101.649 64.5227C100.99 63.7879 100.562 62.9621 100.365 62.0455L104.842 61.4432C104.979 61.7917 105.195 62.1174 105.49 62.4205C105.786 62.7235 106.176 62.9659 106.661 63.1477C107.153 63.3371 107.751 63.4318 108.456 63.4318C109.509 63.4318 110.376 63.1742 111.058 62.6591C111.748 62.1515 112.092 61.2992 112.092 60.1023V56.9091H111.888C111.676 57.3939 111.357 57.8523 110.933 58.2841C110.509 58.7159 109.964 59.0682 109.297 59.3409C108.63 59.6136 107.835 59.75 106.911 59.75C105.6 59.75 104.407 59.447 103.331 58.8409C102.263 58.2273 101.411 57.2917 100.774 56.0341C100.145 54.7689 99.831 53.1705 99.831 51.2386C99.831 49.2614 100.153 47.6098 100.797 46.2841C101.441 44.9583 102.297 43.9659 103.365 43.3068C104.441 42.6477 105.619 42.3182 106.899 42.3182C107.876 42.3182 108.695 42.4848 109.354 42.8182C110.013 43.1439 110.543 43.553 110.945 44.0455C111.354 44.5303 111.668 45.0076 111.888 45.4773H112.07V42.5455H116.876V60.1705C116.876 61.6553 116.513 62.8977 115.786 63.8977C115.058 64.8977 114.051 65.6477 112.763 66.1477C111.482 66.6553 110.009 66.9091 108.342 66.9091ZM108.445 56.1136C109.225 56.1136 109.884 55.9205 110.422 55.5341C110.967 55.1402 111.384 54.5795 111.672 53.8523C111.967 53.1174 112.115 52.2386 112.115 51.2159C112.115 50.1932 111.971 49.3068 111.683 48.5568C111.395 47.7992 110.979 47.2121 110.433 46.7955C109.888 46.3788 109.225 46.1705 108.445 46.1705C107.649 46.1705 106.979 46.3864 106.433 46.8182C105.888 47.2424 105.475 47.8333 105.195 48.5909C104.914 49.3485 104.774 50.2235 104.774 51.2159C104.774 52.2235 104.914 53.0947 105.195 53.8295C105.482 54.5568 105.895 55.1212 106.433 55.5227C106.979 55.9167 107.649 56.1136 108.445 56.1136Z" fill="#FA997F"/>
</svg>
